<mxfile host="app.diagrams.net" agent="Mozilla/5.0 (Windows NT 10.0; Win64; x64) AppleWebKit/537.36 (KHTML, like Gecko) Chrome/132.0.0.0 YaBrowser/25.2.0.0 Safari/537.36" version="26.1.0">
  <diagram name="Страница — 1" id="h9FcH6GGUkvZpxQRhMya">
    <mxGraphModel dx="871" dy="1662" grid="1" gridSize="10" guides="1" tooltips="1" connect="1" arrows="1" fold="1" page="1" pageScale="1" pageWidth="827" pageHeight="1169" math="0" shadow="0">
      <root>
        <mxCell id="0" />
        <mxCell id="1" parent="0" />
        <mxCell id="ERtkjUL3vd4faEh8j_e1-7" value="&lt;div&gt;&lt;b style=&quot;background-color: transparent; color: light-dark(rgb(0, 0, 0), rgb(255, 255, 255));&quot;&gt;Корзина покупателя&lt;/b&gt;&lt;/div&gt;" style="html=1;dropTarget=0;whiteSpace=wrap;" parent="1" vertex="1">
          <mxGeometry x="1130" y="-120" width="180" height="90" as="geometry" />
        </mxCell>
        <mxCell id="ERtkjUL3vd4faEh8j_e1-8" value="" style="shape=module;jettyWidth=8;jettyHeight=4;" parent="ERtkjUL3vd4faEh8j_e1-7" vertex="1">
          <mxGeometry x="1" width="20" height="20" relative="1" as="geometry">
            <mxPoint x="-27" y="7" as="offset" />
          </mxGeometry>
        </mxCell>
        <mxCell id="ERtkjUL3vd4faEh8j_e1-22" value="&lt;div&gt;&lt;b style=&quot;background-color: transparent; color: light-dark(rgb(0, 0, 0), rgb(255, 255, 255));&quot;&gt;Список избранного&lt;/b&gt;&lt;/div&gt;" style="html=1;dropTarget=0;whiteSpace=wrap;" parent="1" vertex="1">
          <mxGeometry x="570" y="-330" width="180" height="90" as="geometry" />
        </mxCell>
        <mxCell id="ERtkjUL3vd4faEh8j_e1-23" value="" style="shape=module;jettyWidth=8;jettyHeight=4;" parent="ERtkjUL3vd4faEh8j_e1-22" vertex="1">
          <mxGeometry x="1" width="20" height="20" relative="1" as="geometry">
            <mxPoint x="-27" y="7" as="offset" />
          </mxGeometry>
        </mxCell>
        <mxCell id="ERtkjUL3vd4faEh8j_e1-28" value="&lt;div&gt;&lt;b style=&quot;background-color: transparent; color: light-dark(rgb(0, 0, 0), rgb(255, 255, 255));&quot;&gt;Товар&lt;/b&gt;&lt;/div&gt;" style="html=1;dropTarget=0;whiteSpace=wrap;" parent="1" vertex="1">
          <mxGeometry x="960" y="-330" width="180" height="90" as="geometry" />
        </mxCell>
        <mxCell id="ERtkjUL3vd4faEh8j_e1-29" value="" style="shape=module;jettyWidth=8;jettyHeight=4;" parent="ERtkjUL3vd4faEh8j_e1-28" vertex="1">
          <mxGeometry x="1" width="20" height="20" relative="1" as="geometry">
            <mxPoint x="-27" y="7" as="offset" />
          </mxGeometry>
        </mxCell>
        <mxCell id="ERtkjUL3vd4faEh8j_e1-115" style="edgeStyle=orthogonalEdgeStyle;rounded=0;orthogonalLoop=1;jettySize=auto;html=1;exitX=0.25;exitY=1;exitDx=0;exitDy=0;entryX=0.5;entryY=0;entryDx=0;entryDy=0;endArrow=none;startFill=0;" parent="1" source="ERtkjUL3vd4faEh8j_e1-30" target="ERtkjUL3vd4faEh8j_e1-114" edge="1">
          <mxGeometry relative="1" as="geometry">
            <Array as="points">
              <mxPoint x="493" y="-30" />
            </Array>
          </mxGeometry>
        </mxCell>
        <mxCell id="ERtkjUL3vd4faEh8j_e1-30" value="&lt;b&gt;Покупатель&lt;/b&gt;" style="html=1;dropTarget=0;whiteSpace=wrap;" parent="1" vertex="1">
          <mxGeometry x="460" y="-120" width="180" height="90" as="geometry" />
        </mxCell>
        <mxCell id="ERtkjUL3vd4faEh8j_e1-31" value="" style="shape=module;jettyWidth=8;jettyHeight=4;" parent="ERtkjUL3vd4faEh8j_e1-30" vertex="1">
          <mxGeometry x="1" width="20" height="20" relative="1" as="geometry">
            <mxPoint x="-27" y="7" as="offset" />
          </mxGeometry>
        </mxCell>
        <mxCell id="ERtkjUL3vd4faEh8j_e1-40" style="edgeStyle=orthogonalEdgeStyle;rounded=0;orthogonalLoop=1;jettySize=auto;html=1;exitX=0;exitY=0.5;exitDx=0;exitDy=0;exitPerimeter=0;entryX=0;entryY=0.5;entryDx=0;entryDy=0;endArrow=none;startFill=0;" parent="1" source="ERtkjUL3vd4faEh8j_e1-39" target="ERtkjUL3vd4faEh8j_e1-7" edge="1">
          <mxGeometry relative="1" as="geometry" />
        </mxCell>
        <mxCell id="ERtkjUL3vd4faEh8j_e1-41" style="edgeStyle=orthogonalEdgeStyle;rounded=0;orthogonalLoop=1;jettySize=auto;html=1;entryX=1;entryY=0.5;entryDx=0;entryDy=0;endArrow=none;startFill=0;exitX=1;exitY=0.5;exitDx=0;exitDy=0;exitPerimeter=0;" parent="1" source="ERtkjUL3vd4faEh8j_e1-39" target="ERtkjUL3vd4faEh8j_e1-99" edge="1">
          <mxGeometry relative="1" as="geometry">
            <mxPoint x="730" y="-80" as="sourcePoint" />
          </mxGeometry>
        </mxCell>
        <mxCell id="ERtkjUL3vd4faEh8j_e1-39" value="Оформить заказ" style="shape=providedRequiredInterface;html=1;verticalLabelPosition=bottom;sketch=0;flipV=0;flipH=1;" parent="1" vertex="1">
          <mxGeometry x="990" y="-90" width="30" height="30" as="geometry" />
        </mxCell>
        <mxCell id="ERtkjUL3vd4faEh8j_e1-43" style="edgeStyle=orthogonalEdgeStyle;rounded=0;orthogonalLoop=1;jettySize=auto;html=1;exitX=1;exitY=0.5;exitDx=0;exitDy=0;exitPerimeter=0;entryX=0.25;entryY=0;entryDx=0;entryDy=0;endArrow=none;startFill=0;" parent="1" source="ERtkjUL3vd4faEh8j_e1-42" target="ERtkjUL3vd4faEh8j_e1-7" edge="1">
          <mxGeometry relative="1" as="geometry">
            <Array as="points">
              <mxPoint x="1050" y="-140" />
              <mxPoint x="1175" y="-140" />
            </Array>
          </mxGeometry>
        </mxCell>
        <mxCell id="ERtkjUL3vd4faEh8j_e1-42" value="Добавить товар&lt;div&gt;в корзину&lt;/div&gt;" style="shape=providedRequiredInterface;html=1;verticalLabelPosition=bottom;sketch=0;flipV=0;flipH=1;direction=south;" parent="1" vertex="1">
          <mxGeometry x="1035" y="-210" width="30" height="30" as="geometry" />
        </mxCell>
        <mxCell id="ERtkjUL3vd4faEh8j_e1-44" style="edgeStyle=orthogonalEdgeStyle;rounded=0;orthogonalLoop=1;jettySize=auto;html=1;exitX=0.5;exitY=1;exitDx=0;exitDy=0;entryX=0;entryY=0.5;entryDx=0;entryDy=0;entryPerimeter=0;endArrow=none;startFill=0;" parent="1" source="ERtkjUL3vd4faEh8j_e1-28" target="ERtkjUL3vd4faEh8j_e1-42" edge="1">
          <mxGeometry relative="1" as="geometry" />
        </mxCell>
        <mxCell id="ERtkjUL3vd4faEh8j_e1-78" style="edgeStyle=orthogonalEdgeStyle;rounded=0;orthogonalLoop=1;jettySize=auto;html=1;exitX=0;exitY=0.5;exitDx=0;exitDy=0;exitPerimeter=0;entryX=0;entryY=0.5;entryDx=0;entryDy=0;endArrow=none;startFill=0;" parent="1" source="ERtkjUL3vd4faEh8j_e1-50" target="ERtkjUL3vd4faEh8j_e1-46" edge="1">
          <mxGeometry relative="1" as="geometry" />
        </mxCell>
        <mxCell id="ERtkjUL3vd4faEh8j_e1-50" value="Найти товар" style="shape=providedRequiredInterface;html=1;verticalLabelPosition=bottom;sketch=0;flipV=0;flipH=1;" parent="1" vertex="1">
          <mxGeometry x="670" y="150" width="30" height="30" as="geometry" />
        </mxCell>
        <mxCell id="ERtkjUL3vd4faEh8j_e1-64" style="edgeStyle=orthogonalEdgeStyle;rounded=0;orthogonalLoop=1;jettySize=auto;html=1;exitX=0;exitY=0.5;exitDx=0;exitDy=0;exitPerimeter=0;entryX=0;entryY=0.75;entryDx=0;entryDy=0;endArrow=none;startFill=0;" parent="1" source="ERtkjUL3vd4faEh8j_e1-62" target="ERtkjUL3vd4faEh8j_e1-22" edge="1">
          <mxGeometry relative="1" as="geometry" />
        </mxCell>
        <mxCell id="ERtkjUL3vd4faEh8j_e1-62" value="Посмотреть список&lt;div&gt;избранного&lt;/div&gt;" style="shape=providedRequiredInterface;html=1;verticalLabelPosition=bottom;sketch=0;flipV=0;flipH=1;direction=south;" parent="1" vertex="1">
          <mxGeometry x="490" y="-210" width="30" height="30" as="geometry" />
        </mxCell>
        <mxCell id="ERtkjUL3vd4faEh8j_e1-63" style="edgeStyle=orthogonalEdgeStyle;rounded=0;orthogonalLoop=1;jettySize=auto;html=1;exitX=0.25;exitY=0;exitDx=0;exitDy=0;entryX=1;entryY=0.5;entryDx=0;entryDy=0;entryPerimeter=0;endArrow=none;startFill=0;" parent="1" source="ERtkjUL3vd4faEh8j_e1-30" target="ERtkjUL3vd4faEh8j_e1-62" edge="1">
          <mxGeometry relative="1" as="geometry" />
        </mxCell>
        <mxCell id="ERtkjUL3vd4faEh8j_e1-67" style="edgeStyle=orthogonalEdgeStyle;rounded=0;orthogonalLoop=1;jettySize=auto;html=1;exitX=1;exitY=0.5;exitDx=0;exitDy=0;exitPerimeter=0;entryX=1;entryY=0.5;entryDx=0;entryDy=0;endArrow=none;startFill=0;" parent="1" source="ERtkjUL3vd4faEh8j_e1-65" target="ERtkjUL3vd4faEh8j_e1-22" edge="1">
          <mxGeometry relative="1" as="geometry" />
        </mxCell>
        <mxCell id="ERtkjUL3vd4faEh8j_e1-65" value="Добавить товар&lt;div&gt;в избранное&lt;/div&gt;" style="shape=providedRequiredInterface;html=1;verticalLabelPosition=bottom;sketch=0;flipV=0;flipH=1;" parent="1" vertex="1">
          <mxGeometry x="800" y="-300" width="30" height="30" as="geometry" />
        </mxCell>
        <mxCell id="ERtkjUL3vd4faEh8j_e1-66" style="edgeStyle=orthogonalEdgeStyle;rounded=0;orthogonalLoop=1;jettySize=auto;html=1;exitX=0;exitY=0.5;exitDx=0;exitDy=0;entryX=0;entryY=0.5;entryDx=0;entryDy=0;entryPerimeter=0;endArrow=none;startFill=0;" parent="1" source="ERtkjUL3vd4faEh8j_e1-28" target="ERtkjUL3vd4faEh8j_e1-65" edge="1">
          <mxGeometry relative="1" as="geometry" />
        </mxCell>
        <mxCell id="ERtkjUL3vd4faEh8j_e1-71" style="edgeStyle=orthogonalEdgeStyle;rounded=0;orthogonalLoop=1;jettySize=auto;html=1;exitX=1;exitY=0.5;exitDx=0;exitDy=0;exitPerimeter=0;entryX=0.75;entryY=1;entryDx=0;entryDy=0;endArrow=none;startFill=0;" parent="1" source="ERtkjUL3vd4faEh8j_e1-70" target="ERtkjUL3vd4faEh8j_e1-28" edge="1">
          <mxGeometry relative="1" as="geometry" />
        </mxCell>
        <mxCell id="ERtkjUL3vd4faEh8j_e1-72" style="edgeStyle=orthogonalEdgeStyle;rounded=0;orthogonalLoop=1;jettySize=auto;html=1;exitX=0;exitY=0.5;exitDx=0;exitDy=0;exitPerimeter=0;entryX=0.75;entryY=0;entryDx=0;entryDy=0;endArrow=none;startFill=0;" parent="1" source="ERtkjUL3vd4faEh8j_e1-70" target="ERtkjUL3vd4faEh8j_e1-7" edge="1">
          <mxGeometry relative="1" as="geometry" />
        </mxCell>
        <mxCell id="ERtkjUL3vd4faEh8j_e1-70" value="&lt;div&gt;Удалить товар&lt;/div&gt;&lt;div&gt;из корзины&lt;/div&gt;" style="shape=providedRequiredInterface;html=1;verticalLabelPosition=bottom;sketch=0;flipV=1;flipH=0;direction=south;" parent="1" vertex="1">
          <mxGeometry x="1250" y="-200" width="30" height="30" as="geometry" />
        </mxCell>
        <mxCell id="ERtkjUL3vd4faEh8j_e1-76" style="edgeStyle=orthogonalEdgeStyle;rounded=0;orthogonalLoop=1;jettySize=auto;html=1;exitX=1;exitY=0.5;exitDx=0;exitDy=0;exitPerimeter=0;entryX=0.25;entryY=0;entryDx=0;entryDy=0;endArrow=none;startFill=0;" parent="1" source="ERtkjUL3vd4faEh8j_e1-74" target="ERtkjUL3vd4faEh8j_e1-28" edge="1">
          <mxGeometry relative="1" as="geometry" />
        </mxCell>
        <mxCell id="ERtkjUL3vd4faEh8j_e1-74" value="Удалить товар&lt;div&gt;из избранного&lt;/div&gt;" style="shape=providedRequiredInterface;html=1;verticalLabelPosition=bottom;sketch=0;flipV=0;flipH=0;" parent="1" vertex="1">
          <mxGeometry x="797" y="-370" width="30" height="30" as="geometry" />
        </mxCell>
        <mxCell id="ERtkjUL3vd4faEh8j_e1-75" style="edgeStyle=orthogonalEdgeStyle;rounded=0;orthogonalLoop=1;jettySize=auto;html=1;exitX=0.75;exitY=0;exitDx=0;exitDy=0;entryX=0;entryY=0.5;entryDx=0;entryDy=0;entryPerimeter=0;endArrow=none;startFill=0;" parent="1" source="ERtkjUL3vd4faEh8j_e1-22" target="ERtkjUL3vd4faEh8j_e1-74" edge="1">
          <mxGeometry relative="1" as="geometry" />
        </mxCell>
        <mxCell id="ERtkjUL3vd4faEh8j_e1-46" value="&lt;b&gt;Каталог&lt;/b&gt;" style="html=1;dropTarget=0;whiteSpace=wrap;" parent="1" vertex="1">
          <mxGeometry x="860" y="120" width="180" height="90" as="geometry" />
        </mxCell>
        <mxCell id="ERtkjUL3vd4faEh8j_e1-47" value="" style="shape=module;jettyWidth=8;jettyHeight=4;" parent="ERtkjUL3vd4faEh8j_e1-46" vertex="1">
          <mxGeometry x="1" width="20" height="20" relative="1" as="geometry">
            <mxPoint x="-27" y="7" as="offset" />
          </mxGeometry>
        </mxCell>
        <mxCell id="ERtkjUL3vd4faEh8j_e1-79" style="edgeStyle=orthogonalEdgeStyle;rounded=0;orthogonalLoop=1;jettySize=auto;html=1;exitX=0.5;exitY=1;exitDx=0;exitDy=0;entryX=1;entryY=0.5;entryDx=0;entryDy=0;entryPerimeter=0;endArrow=none;startFill=0;" parent="1" source="ERtkjUL3vd4faEh8j_e1-30" target="ERtkjUL3vd4faEh8j_e1-50" edge="1">
          <mxGeometry relative="1" as="geometry" />
        </mxCell>
        <mxCell id="ERtkjUL3vd4faEh8j_e1-80" value="Изменить товар" style="shape=providedRequiredInterface;html=1;verticalLabelPosition=bottom;sketch=0;flipV=0;flipH=1;" parent="1" vertex="1">
          <mxGeometry x="1170" y="210" width="30" height="30" as="geometry" />
        </mxCell>
        <mxCell id="ERtkjUL3vd4faEh8j_e1-83" style="edgeStyle=orthogonalEdgeStyle;rounded=0;orthogonalLoop=1;jettySize=auto;html=1;exitX=1;exitY=0.5;exitDx=0;exitDy=0;exitPerimeter=0;entryX=1;entryY=0.25;entryDx=0;entryDy=0;endArrow=none;startFill=0;" parent="1" source="ERtkjUL3vd4faEh8j_e1-81" target="ERtkjUL3vd4faEh8j_e1-46" edge="1">
          <mxGeometry relative="1" as="geometry" />
        </mxCell>
        <mxCell id="ERtkjUL3vd4faEh8j_e1-81" value="Добавить товар" style="shape=providedRequiredInterface;html=1;verticalLabelPosition=bottom;sketch=0;flipV=0;flipH=1;" parent="1" vertex="1">
          <mxGeometry x="1170" y="90" width="30" height="30" as="geometry" />
        </mxCell>
        <mxCell id="ERtkjUL3vd4faEh8j_e1-84" style="edgeStyle=orthogonalEdgeStyle;rounded=0;orthogonalLoop=1;jettySize=auto;html=1;exitX=1;exitY=0.5;exitDx=0;exitDy=0;exitPerimeter=0;entryX=1;entryY=0.5;entryDx=0;entryDy=0;endArrow=none;startFill=0;" parent="1" source="ERtkjUL3vd4faEh8j_e1-82" target="ERtkjUL3vd4faEh8j_e1-46" edge="1">
          <mxGeometry relative="1" as="geometry" />
        </mxCell>
        <mxCell id="ERtkjUL3vd4faEh8j_e1-82" value="Удалить товар" style="shape=providedRequiredInterface;html=1;verticalLabelPosition=bottom;sketch=0;flipV=0;flipH=1;" parent="1" vertex="1">
          <mxGeometry x="1170" y="150" width="30" height="30" as="geometry" />
        </mxCell>
        <mxCell id="ERtkjUL3vd4faEh8j_e1-86" value="&lt;b&gt;Администратор&lt;/b&gt;" style="html=1;dropTarget=0;whiteSpace=wrap;" parent="1" vertex="1">
          <mxGeometry x="1330" y="120" width="180" height="90" as="geometry" />
        </mxCell>
        <mxCell id="ERtkjUL3vd4faEh8j_e1-87" value="" style="shape=module;jettyWidth=8;jettyHeight=4;" parent="ERtkjUL3vd4faEh8j_e1-86" vertex="1">
          <mxGeometry x="1" width="20" height="20" relative="1" as="geometry">
            <mxPoint x="-27" y="7" as="offset" />
          </mxGeometry>
        </mxCell>
        <mxCell id="ERtkjUL3vd4faEh8j_e1-88" style="edgeStyle=orthogonalEdgeStyle;rounded=0;orthogonalLoop=1;jettySize=auto;html=1;exitX=0;exitY=0.25;exitDx=0;exitDy=0;entryX=0;entryY=0.5;entryDx=0;entryDy=0;entryPerimeter=0;endArrow=none;startFill=0;" parent="1" source="ERtkjUL3vd4faEh8j_e1-86" target="ERtkjUL3vd4faEh8j_e1-81" edge="1">
          <mxGeometry relative="1" as="geometry" />
        </mxCell>
        <mxCell id="ERtkjUL3vd4faEh8j_e1-89" style="edgeStyle=orthogonalEdgeStyle;rounded=0;orthogonalLoop=1;jettySize=auto;html=1;exitX=0;exitY=0.5;exitDx=0;exitDy=0;entryX=0;entryY=0.5;entryDx=0;entryDy=0;entryPerimeter=0;endArrow=none;startFill=0;" parent="1" source="ERtkjUL3vd4faEh8j_e1-86" target="ERtkjUL3vd4faEh8j_e1-82" edge="1">
          <mxGeometry relative="1" as="geometry" />
        </mxCell>
        <mxCell id="ERtkjUL3vd4faEh8j_e1-90" style="edgeStyle=orthogonalEdgeStyle;rounded=0;orthogonalLoop=1;jettySize=auto;html=1;exitX=0;exitY=0.75;exitDx=0;exitDy=0;entryX=0;entryY=0.5;entryDx=0;entryDy=0;entryPerimeter=0;endArrow=none;startFill=0;" parent="1" source="ERtkjUL3vd4faEh8j_e1-86" target="ERtkjUL3vd4faEh8j_e1-80" edge="1">
          <mxGeometry relative="1" as="geometry" />
        </mxCell>
        <mxCell id="ERtkjUL3vd4faEh8j_e1-91" style="edgeStyle=orthogonalEdgeStyle;rounded=0;orthogonalLoop=1;jettySize=auto;html=1;exitX=1;exitY=0.75;exitDx=0;exitDy=0;entryX=1;entryY=0.5;entryDx=0;entryDy=0;entryPerimeter=0;endArrow=none;startFill=0;" parent="1" source="ERtkjUL3vd4faEh8j_e1-46" target="ERtkjUL3vd4faEh8j_e1-80" edge="1">
          <mxGeometry relative="1" as="geometry" />
        </mxCell>
        <mxCell id="ERtkjUL3vd4faEh8j_e1-93" style="edgeStyle=orthogonalEdgeStyle;rounded=0;orthogonalLoop=1;jettySize=auto;html=1;exitX=1;exitY=0.5;exitDx=0;exitDy=0;entryX=1;entryY=0.5;entryDx=0;entryDy=0;entryPerimeter=0;endArrow=none;startFill=0;" parent="1" source="ERtkjUL3vd4faEh8j_e1-86" target="dv1LXNY-csFjsVIDDh0m-5" edge="1">
          <mxGeometry relative="1" as="geometry">
            <mxPoint x="1580" y="165.49999999999977" as="targetPoint" />
          </mxGeometry>
        </mxCell>
        <mxCell id="ERtkjUL3vd4faEh8j_e1-96" style="edgeStyle=orthogonalEdgeStyle;rounded=0;orthogonalLoop=1;jettySize=auto;html=1;exitX=0;exitY=0.25;exitDx=0;exitDy=0;entryX=1;entryY=0.5;entryDx=0;entryDy=0;entryPerimeter=0;endArrow=none;startFill=0;" parent="1" source="ERtkjUL3vd4faEh8j_e1-30" target="dv1LXNY-csFjsVIDDh0m-4" edge="1">
          <mxGeometry relative="1" as="geometry" />
        </mxCell>
        <mxCell id="ERtkjUL3vd4faEh8j_e1-98" style="edgeStyle=orthogonalEdgeStyle;rounded=0;orthogonalLoop=1;jettySize=auto;html=1;exitX=0;exitY=0.5;exitDx=0;exitDy=0;entryX=1;entryY=0.5;entryDx=0;entryDy=0;entryPerimeter=0;endArrow=none;startFill=0;" parent="1" source="ERtkjUL3vd4faEh8j_e1-30" target="dv1LXNY-csFjsVIDDh0m-3" edge="1">
          <mxGeometry relative="1" as="geometry" />
        </mxCell>
        <mxCell id="ERtkjUL3vd4faEh8j_e1-99" value="&lt;b&gt;Заказ&lt;/b&gt;" style="html=1;dropTarget=0;whiteSpace=wrap;" parent="1" vertex="1">
          <mxGeometry x="760" y="-120" width="180" height="90" as="geometry" />
        </mxCell>
        <mxCell id="ERtkjUL3vd4faEh8j_e1-100" value="" style="shape=module;jettyWidth=8;jettyHeight=4;" parent="ERtkjUL3vd4faEh8j_e1-99" vertex="1">
          <mxGeometry x="1" width="20" height="20" relative="1" as="geometry">
            <mxPoint x="-27" y="7" as="offset" />
          </mxGeometry>
        </mxCell>
        <mxCell id="ERtkjUL3vd4faEh8j_e1-104" style="edgeStyle=orthogonalEdgeStyle;rounded=0;orthogonalLoop=1;jettySize=auto;html=1;exitX=1;exitY=0.5;exitDx=0;exitDy=0;exitPerimeter=0;entryX=0;entryY=0.5;entryDx=0;entryDy=0;endArrow=none;startFill=0;" parent="1" source="ERtkjUL3vd4faEh8j_e1-101" target="ERtkjUL3vd4faEh8j_e1-99" edge="1">
          <mxGeometry relative="1" as="geometry" />
        </mxCell>
        <mxCell id="ERtkjUL3vd4faEh8j_e1-101" value="Оплатить заказ" style="shape=providedRequiredInterface;html=1;verticalLabelPosition=bottom;sketch=0;flipV=0;flipH=0;" parent="1" vertex="1">
          <mxGeometry x="680" y="-90" width="30" height="30" as="geometry" />
        </mxCell>
        <mxCell id="ERtkjUL3vd4faEh8j_e1-105" style="edgeStyle=orthogonalEdgeStyle;rounded=0;orthogonalLoop=1;jettySize=auto;html=1;exitX=0;exitY=0.5;exitDx=0;exitDy=0;exitPerimeter=0;entryX=0.5;entryY=0;entryDx=0;entryDy=0;endArrow=none;startFill=0;" parent="1" source="ERtkjUL3vd4faEh8j_e1-102" target="ERtkjUL3vd4faEh8j_e1-99" edge="1">
          <mxGeometry relative="1" as="geometry" />
        </mxCell>
        <mxCell id="ERtkjUL3vd4faEh8j_e1-106" style="edgeStyle=orthogonalEdgeStyle;rounded=0;orthogonalLoop=1;jettySize=auto;html=1;exitX=1;exitY=0.5;exitDx=0;exitDy=0;exitPerimeter=0;entryX=0.75;entryY=0;entryDx=0;entryDy=0;endArrow=none;startFill=0;" parent="1" source="ERtkjUL3vd4faEh8j_e1-102" target="ERtkjUL3vd4faEh8j_e1-30" edge="1">
          <mxGeometry relative="1" as="geometry" />
        </mxCell>
        <mxCell id="ERtkjUL3vd4faEh8j_e1-102" value="Посмотреть статус&lt;div&gt;заказа&lt;/div&gt;" style="shape=providedRequiredInterface;html=1;verticalLabelPosition=bottom;sketch=0;flipV=0;flipH=1;" parent="1" vertex="1">
          <mxGeometry x="680" y="-180" width="30" height="30" as="geometry" />
        </mxCell>
        <mxCell id="ERtkjUL3vd4faEh8j_e1-103" style="edgeStyle=orthogonalEdgeStyle;rounded=0;orthogonalLoop=1;jettySize=auto;html=1;exitX=1;exitY=0.5;exitDx=0;exitDy=0;entryX=0;entryY=0.5;entryDx=0;entryDy=0;entryPerimeter=0;endArrow=none;startFill=0;" parent="1" source="ERtkjUL3vd4faEh8j_e1-30" target="ERtkjUL3vd4faEh8j_e1-101" edge="1">
          <mxGeometry relative="1" as="geometry" />
        </mxCell>
        <mxCell id="ERtkjUL3vd4faEh8j_e1-109" style="edgeStyle=orthogonalEdgeStyle;rounded=0;orthogonalLoop=1;jettySize=auto;html=1;exitX=1;exitY=0.5;exitDx=0;exitDy=0;exitPerimeter=0;entryX=0.75;entryY=1;entryDx=0;entryDy=0;endArrow=none;startFill=0;" parent="1" source="ERtkjUL3vd4faEh8j_e1-108" target="ERtkjUL3vd4faEh8j_e1-30" edge="1">
          <mxGeometry relative="1" as="geometry" />
        </mxCell>
        <mxCell id="ERtkjUL3vd4faEh8j_e1-110" style="edgeStyle=orthogonalEdgeStyle;rounded=0;orthogonalLoop=1;jettySize=auto;html=1;exitX=0;exitY=0.5;exitDx=0;exitDy=0;exitPerimeter=0;entryX=0.5;entryY=1;entryDx=0;entryDy=0;endArrow=none;startFill=0;" parent="1" source="ERtkjUL3vd4faEh8j_e1-108" target="ERtkjUL3vd4faEh8j_e1-7" edge="1">
          <mxGeometry relative="1" as="geometry" />
        </mxCell>
        <mxCell id="ERtkjUL3vd4faEh8j_e1-108" value="Посмотреть список&amp;nbsp;&lt;div&gt;товаров&amp;nbsp;&lt;span style=&quot;background-color: transparent; color: light-dark(rgb(0, 0, 0), rgb(255, 255, 255));&quot;&gt;в корзине&lt;/span&gt;&lt;/div&gt;" style="shape=providedRequiredInterface;html=1;verticalLabelPosition=bottom;sketch=0;flipV=0;flipH=1;" parent="1" vertex="1">
          <mxGeometry x="835" width="30" height="30" as="geometry" />
        </mxCell>
        <mxCell id="ERtkjUL3vd4faEh8j_e1-111" value="Посмотреть информацию&lt;div&gt;о товаре&lt;/div&gt;" style="shape=providedRequiredInterface;html=1;verticalLabelPosition=bottom;sketch=0;flipV=0;flipH=1;direction=south;" parent="1" vertex="1">
          <mxGeometry x="1405" y="-90" width="30" height="30" as="geometry" />
        </mxCell>
        <mxCell id="ERtkjUL3vd4faEh8j_e1-112" style="edgeStyle=orthogonalEdgeStyle;rounded=0;orthogonalLoop=1;jettySize=auto;html=1;exitX=1;exitY=0.5;exitDx=0;exitDy=0;entryX=0;entryY=0.5;entryDx=0;entryDy=0;entryPerimeter=0;endArrow=none;startFill=0;" parent="1" source="ERtkjUL3vd4faEh8j_e1-28" target="ERtkjUL3vd4faEh8j_e1-111" edge="1">
          <mxGeometry relative="1" as="geometry" />
        </mxCell>
        <mxCell id="ERtkjUL3vd4faEh8j_e1-113" style="edgeStyle=orthogonalEdgeStyle;rounded=0;orthogonalLoop=1;jettySize=auto;html=1;exitX=0.5;exitY=0;exitDx=0;exitDy=0;entryX=1;entryY=0.5;entryDx=0;entryDy=0;entryPerimeter=0;endArrow=none;startFill=0;" parent="1" source="ERtkjUL3vd4faEh8j_e1-46" target="ERtkjUL3vd4faEh8j_e1-111" edge="1">
          <mxGeometry relative="1" as="geometry" />
        </mxCell>
        <mxCell id="ERtkjUL3vd4faEh8j_e1-114" value="" style="ellipse;whiteSpace=wrap;html=1;aspect=fixed;" parent="1" vertex="1">
          <mxGeometry x="480" y="50" width="26" height="26" as="geometry" />
        </mxCell>
        <mxCell id="ERtkjUL3vd4faEh8j_e1-116" value="Изменить личную информацию" style="text;html=1;align=center;verticalAlign=middle;whiteSpace=wrap;rounded=0;" parent="1" vertex="1">
          <mxGeometry x="433" y="80" width="120" height="30" as="geometry" />
        </mxCell>
        <mxCell id="dv1LXNY-csFjsVIDDh0m-1" value="&lt;b&gt;Авторизация и регистрация&lt;/b&gt;" style="html=1;dropTarget=0;whiteSpace=wrap;" parent="1" vertex="1">
          <mxGeometry x="430" y="320" width="180" height="90" as="geometry" />
        </mxCell>
        <mxCell id="dv1LXNY-csFjsVIDDh0m-2" value="" style="shape=module;jettyWidth=8;jettyHeight=4;" parent="dv1LXNY-csFjsVIDDh0m-1" vertex="1">
          <mxGeometry x="1" width="20" height="20" relative="1" as="geometry">
            <mxPoint x="-27" y="7" as="offset" />
          </mxGeometry>
        </mxCell>
        <mxCell id="dv1LXNY-csFjsVIDDh0m-7" style="edgeStyle=orthogonalEdgeStyle;rounded=0;orthogonalLoop=1;jettySize=auto;html=1;exitX=0;exitY=0.5;exitDx=0;exitDy=0;exitPerimeter=0;entryX=0.5;entryY=0;entryDx=0;entryDy=0;endArrow=none;startFill=0;" parent="1" source="dv1LXNY-csFjsVIDDh0m-3" target="dv1LXNY-csFjsVIDDh0m-1" edge="1">
          <mxGeometry relative="1" as="geometry" />
        </mxCell>
        <mxCell id="dv1LXNY-csFjsVIDDh0m-3" value="&lt;div&gt;Зарегистрироваться&lt;/div&gt;&lt;div&gt;покупателю&lt;/div&gt;" style="shape=providedRequiredInterface;html=1;verticalLabelPosition=bottom;sketch=0;flipV=1;flipH=0;direction=south;" parent="1" vertex="1">
          <mxGeometry x="420" y="180" width="30" height="30" as="geometry" />
        </mxCell>
        <mxCell id="dv1LXNY-csFjsVIDDh0m-8" style="edgeStyle=orthogonalEdgeStyle;rounded=0;orthogonalLoop=1;jettySize=auto;html=1;exitX=0;exitY=0.5;exitDx=0;exitDy=0;exitPerimeter=0;entryX=0;entryY=0.5;entryDx=0;entryDy=0;endArrow=none;startFill=0;" parent="1" source="dv1LXNY-csFjsVIDDh0m-4" target="dv1LXNY-csFjsVIDDh0m-1" edge="1">
          <mxGeometry relative="1" as="geometry" />
        </mxCell>
        <mxCell id="dv1LXNY-csFjsVIDDh0m-4" value="&lt;div&gt;Авторизоваться&lt;/div&gt;&lt;div&gt;покупателю&lt;/div&gt;" style="shape=providedRequiredInterface;html=1;verticalLabelPosition=bottom;sketch=0;flipV=1;flipH=0;direction=south;" parent="1" vertex="1">
          <mxGeometry x="350" y="240" width="30" height="30" as="geometry" />
        </mxCell>
        <mxCell id="dv1LXNY-csFjsVIDDh0m-6" style="edgeStyle=orthogonalEdgeStyle;rounded=0;orthogonalLoop=1;jettySize=auto;html=1;exitX=0;exitY=0.5;exitDx=0;exitDy=0;exitPerimeter=0;entryX=1;entryY=0.5;entryDx=0;entryDy=0;endArrow=none;startFill=0;" parent="1" source="dv1LXNY-csFjsVIDDh0m-5" target="dv1LXNY-csFjsVIDDh0m-1" edge="1">
          <mxGeometry relative="1" as="geometry" />
        </mxCell>
        <mxCell id="dv1LXNY-csFjsVIDDh0m-5" value="Авторизоваться&lt;div&gt;администратору&lt;/div&gt;" style="shape=providedRequiredInterface;html=1;verticalLabelPosition=bottom;sketch=0;flipV=0;flipH=0;" parent="1" vertex="1">
          <mxGeometry x="730" y="350" width="30" height="30" as="geometry" />
        </mxCell>
        <mxCell id="90CIzTZfNytVx7dWY7dW-3" value="&lt;b&gt;Точка входа&lt;/b&gt;" style="html=1;dropTarget=0;whiteSpace=wrap;" parent="1" vertex="1">
          <mxGeometry x="470" y="1010" width="180" height="90" as="geometry" />
        </mxCell>
        <mxCell id="90CIzTZfNytVx7dWY7dW-4" value="" style="shape=module;jettyWidth=8;jettyHeight=4;" parent="90CIzTZfNytVx7dWY7dW-3" vertex="1">
          <mxGeometry x="1" width="20" height="20" relative="1" as="geometry">
            <mxPoint x="-27" y="7" as="offset" />
          </mxGeometry>
        </mxCell>
        <mxCell id="90CIzTZfNytVx7dWY7dW-5" value="&lt;b&gt;Клиентское приложение&lt;/b&gt;" style="html=1;dropTarget=0;whiteSpace=wrap;" parent="1" vertex="1">
          <mxGeometry x="160" y="1010" width="180" height="90" as="geometry" />
        </mxCell>
        <mxCell id="90CIzTZfNytVx7dWY7dW-6" value="" style="shape=module;jettyWidth=8;jettyHeight=4;" parent="90CIzTZfNytVx7dWY7dW-5" vertex="1">
          <mxGeometry x="1" width="20" height="20" relative="1" as="geometry">
            <mxPoint x="-27" y="7" as="offset" />
          </mxGeometry>
        </mxCell>
        <mxCell id="90CIzTZfNytVx7dWY7dW-7" value="&lt;b&gt;Сервис управления товарами&lt;/b&gt;" style="html=1;dropTarget=0;whiteSpace=wrap;" parent="1" vertex="1">
          <mxGeometry x="980" y="1010" width="180" height="90" as="geometry" />
        </mxCell>
        <mxCell id="90CIzTZfNytVx7dWY7dW-8" value="" style="shape=module;jettyWidth=8;jettyHeight=4;" parent="90CIzTZfNytVx7dWY7dW-7" vertex="1">
          <mxGeometry x="1" width="20" height="20" relative="1" as="geometry">
            <mxPoint x="-27" y="7" as="offset" />
          </mxGeometry>
        </mxCell>
        <mxCell id="N7BwOCpIcy_v1ol7rBr_-1" value="&lt;b&gt;Сервис управления пользователями&amp;nbsp;&lt;/b&gt;" style="html=1;dropTarget=0;whiteSpace=wrap;" vertex="1" parent="1">
          <mxGeometry x="980" y="1230" width="180" height="90" as="geometry" />
        </mxCell>
        <mxCell id="N7BwOCpIcy_v1ol7rBr_-2" value="" style="shape=module;jettyWidth=8;jettyHeight=4;" vertex="1" parent="N7BwOCpIcy_v1ol7rBr_-1">
          <mxGeometry x="1" width="20" height="20" relative="1" as="geometry">
            <mxPoint x="-27" y="7" as="offset" />
          </mxGeometry>
        </mxCell>
        <mxCell id="N7BwOCpIcy_v1ol7rBr_-11" value="&lt;b&gt;Сервис для работы администраторов&lt;/b&gt;" style="html=1;dropTarget=0;whiteSpace=wrap;" vertex="1" parent="1">
          <mxGeometry x="980" y="870" width="180" height="90" as="geometry" />
        </mxCell>
        <mxCell id="N7BwOCpIcy_v1ol7rBr_-12" value="" style="shape=module;jettyWidth=8;jettyHeight=4;" vertex="1" parent="N7BwOCpIcy_v1ol7rBr_-11">
          <mxGeometry x="1" width="20" height="20" relative="1" as="geometry">
            <mxPoint x="-27" y="7" as="offset" />
          </mxGeometry>
        </mxCell>
        <mxCell id="N7BwOCpIcy_v1ol7rBr_-22" style="edgeStyle=orthogonalEdgeStyle;rounded=0;orthogonalLoop=1;jettySize=auto;html=1;exitX=0;exitY=0.5;exitDx=0;exitDy=0;exitPerimeter=0;entryX=1;entryY=0.5;entryDx=0;entryDy=0;endArrow=none;startFill=0;" edge="1" parent="1" source="N7BwOCpIcy_v1ol7rBr_-13" target="N7BwOCpIcy_v1ol7rBr_-52">
          <mxGeometry relative="1" as="geometry" />
        </mxCell>
        <mxCell id="N7BwOCpIcy_v1ol7rBr_-23" style="edgeStyle=orthogonalEdgeStyle;rounded=0;orthogonalLoop=1;jettySize=auto;html=1;exitX=1;exitY=0.5;exitDx=0;exitDy=0;exitPerimeter=0;entryX=0;entryY=0.5;entryDx=0;entryDy=0;endArrow=none;startFill=0;" edge="1" parent="1" source="N7BwOCpIcy_v1ol7rBr_-13" target="N7BwOCpIcy_v1ol7rBr_-49">
          <mxGeometry relative="1" as="geometry" />
        </mxCell>
        <mxCell id="N7BwOCpIcy_v1ol7rBr_-13" value="" style="shape=providedRequiredInterface;html=1;verticalLabelPosition=bottom;sketch=0;flipV=0;flipH=0;" vertex="1" parent="1">
          <mxGeometry x="767" y="900" width="30" height="30" as="geometry" />
        </mxCell>
        <mxCell id="N7BwOCpIcy_v1ol7rBr_-27" style="edgeStyle=orthogonalEdgeStyle;rounded=0;orthogonalLoop=1;jettySize=auto;html=1;exitX=1;exitY=0.5;exitDx=0;exitDy=0;exitPerimeter=0;entryX=0;entryY=0.5;entryDx=0;entryDy=0;endArrow=none;startFill=0;" edge="1" parent="1" source="N7BwOCpIcy_v1ol7rBr_-21" target="N7BwOCpIcy_v1ol7rBr_-53">
          <mxGeometry relative="1" as="geometry" />
        </mxCell>
        <mxCell id="N7BwOCpIcy_v1ol7rBr_-28" style="edgeStyle=orthogonalEdgeStyle;rounded=0;orthogonalLoop=1;jettySize=auto;html=1;exitX=0;exitY=0.5;exitDx=0;exitDy=0;exitPerimeter=0;entryX=1;entryY=0.5;entryDx=0;entryDy=0;endArrow=none;startFill=0;" edge="1" parent="1" source="N7BwOCpIcy_v1ol7rBr_-21" target="N7BwOCpIcy_v1ol7rBr_-54">
          <mxGeometry relative="1" as="geometry" />
        </mxCell>
        <mxCell id="N7BwOCpIcy_v1ol7rBr_-21" value="" style="shape=providedRequiredInterface;html=1;verticalLabelPosition=bottom;sketch=0;flipV=0;flipH=0;" vertex="1" parent="1">
          <mxGeometry x="400" y="1040" width="30" height="30" as="geometry" />
        </mxCell>
        <mxCell id="N7BwOCpIcy_v1ol7rBr_-25" style="edgeStyle=orthogonalEdgeStyle;rounded=0;orthogonalLoop=1;jettySize=auto;html=1;exitX=0;exitY=0.5;exitDx=0;exitDy=0;exitPerimeter=0;entryX=1;entryY=0.5;entryDx=0;entryDy=0;endArrow=none;startFill=0;" edge="1" parent="1" source="N7BwOCpIcy_v1ol7rBr_-24" target="N7BwOCpIcy_v1ol7rBr_-52">
          <mxGeometry relative="1" as="geometry" />
        </mxCell>
        <mxCell id="N7BwOCpIcy_v1ol7rBr_-26" style="edgeStyle=orthogonalEdgeStyle;rounded=0;orthogonalLoop=1;jettySize=auto;html=1;exitX=1;exitY=0.5;exitDx=0;exitDy=0;exitPerimeter=0;entryX=0;entryY=0.5;entryDx=0;entryDy=0;endArrow=none;startFill=0;" edge="1" parent="1" source="N7BwOCpIcy_v1ol7rBr_-24" target="N7BwOCpIcy_v1ol7rBr_-50">
          <mxGeometry relative="1" as="geometry">
            <Array as="points">
              <mxPoint x="920" y="1055" />
            </Array>
          </mxGeometry>
        </mxCell>
        <mxCell id="N7BwOCpIcy_v1ol7rBr_-24" value="" style="shape=providedRequiredInterface;html=1;verticalLabelPosition=bottom;sketch=0;flipV=0;flipH=0;" vertex="1" parent="1">
          <mxGeometry x="760" y="1040" width="30" height="30" as="geometry" />
        </mxCell>
        <mxCell id="N7BwOCpIcy_v1ol7rBr_-31" style="edgeStyle=orthogonalEdgeStyle;rounded=0;orthogonalLoop=1;jettySize=auto;html=1;exitX=0;exitY=0.5;exitDx=0;exitDy=0;exitPerimeter=0;entryX=1;entryY=0.5;entryDx=0;entryDy=0;endArrow=none;startFill=0;" edge="1" parent="1" source="N7BwOCpIcy_v1ol7rBr_-30" target="N7BwOCpIcy_v1ol7rBr_-52">
          <mxGeometry relative="1" as="geometry" />
        </mxCell>
        <mxCell id="N7BwOCpIcy_v1ol7rBr_-32" style="edgeStyle=orthogonalEdgeStyle;rounded=0;orthogonalLoop=1;jettySize=auto;html=1;exitX=1;exitY=0.5;exitDx=0;exitDy=0;exitPerimeter=0;entryX=0;entryY=0.5;entryDx=0;entryDy=0;endArrow=none;startFill=0;" edge="1" parent="1" source="N7BwOCpIcy_v1ol7rBr_-30" target="N7BwOCpIcy_v1ol7rBr_-51">
          <mxGeometry relative="1" as="geometry" />
        </mxCell>
        <mxCell id="N7BwOCpIcy_v1ol7rBr_-30" value="" style="shape=providedRequiredInterface;html=1;verticalLabelPosition=bottom;sketch=0;flipV=0;flipH=0;" vertex="1" parent="1">
          <mxGeometry x="767" y="1260" width="30" height="30" as="geometry" />
        </mxCell>
        <mxCell id="N7BwOCpIcy_v1ol7rBr_-34" style="edgeStyle=orthogonalEdgeStyle;rounded=0;orthogonalLoop=1;jettySize=auto;html=1;exitX=0;exitY=0.5;exitDx=0;exitDy=0;exitPerimeter=0;entryX=1;entryY=0.5;entryDx=0;entryDy=0;endArrow=none;startFill=0;" edge="1" parent="1" source="N7BwOCpIcy_v1ol7rBr_-33" target="N7BwOCpIcy_v1ol7rBr_-47">
          <mxGeometry relative="1" as="geometry" />
        </mxCell>
        <mxCell id="N7BwOCpIcy_v1ol7rBr_-35" style="edgeStyle=orthogonalEdgeStyle;rounded=0;orthogonalLoop=1;jettySize=auto;html=1;exitX=1;exitY=0.5;exitDx=0;exitDy=0;exitPerimeter=0;entryX=0;entryY=0.5;entryDx=0;entryDy=0;endArrow=none;startFill=0;" edge="1" parent="1" source="N7BwOCpIcy_v1ol7rBr_-33" target="N7BwOCpIcy_v1ol7rBr_-45">
          <mxGeometry relative="1" as="geometry" />
        </mxCell>
        <mxCell id="N7BwOCpIcy_v1ol7rBr_-33" value="" style="shape=providedRequiredInterface;html=1;verticalLabelPosition=bottom;sketch=0;flipV=0;flipH=0;" vertex="1" parent="1">
          <mxGeometry x="1220" y="1040" width="30" height="30" as="geometry" />
        </mxCell>
        <mxCell id="N7BwOCpIcy_v1ol7rBr_-37" style="edgeStyle=orthogonalEdgeStyle;rounded=0;orthogonalLoop=1;jettySize=auto;html=1;exitX=0;exitY=0.5;exitDx=0;exitDy=0;exitPerimeter=0;entryX=1;entryY=0.5;entryDx=0;entryDy=0;endArrow=none;startFill=0;" edge="1" parent="1" source="N7BwOCpIcy_v1ol7rBr_-36" target="N7BwOCpIcy_v1ol7rBr_-48">
          <mxGeometry relative="1" as="geometry" />
        </mxCell>
        <mxCell id="N7BwOCpIcy_v1ol7rBr_-38" style="edgeStyle=orthogonalEdgeStyle;rounded=0;orthogonalLoop=1;jettySize=auto;html=1;exitX=1;exitY=0.5;exitDx=0;exitDy=0;exitPerimeter=0;entryX=0;entryY=0.5;entryDx=0;entryDy=0;endArrow=none;startFill=0;" edge="1" parent="1" source="N7BwOCpIcy_v1ol7rBr_-36" target="N7BwOCpIcy_v1ol7rBr_-45">
          <mxGeometry relative="1" as="geometry" />
        </mxCell>
        <mxCell id="N7BwOCpIcy_v1ol7rBr_-36" value="" style="shape=providedRequiredInterface;html=1;verticalLabelPosition=bottom;sketch=0;flipV=0;flipH=0;" vertex="1" parent="1">
          <mxGeometry x="1260" y="900" width="30" height="30" as="geometry" />
        </mxCell>
        <mxCell id="N7BwOCpIcy_v1ol7rBr_-42" style="edgeStyle=orthogonalEdgeStyle;rounded=0;orthogonalLoop=1;jettySize=auto;html=1;exitX=1;exitY=0.5;exitDx=0;exitDy=0;exitPerimeter=0;entryX=0;entryY=0.5;entryDx=0;entryDy=0;endArrow=none;startFill=0;" edge="1" parent="1" source="N7BwOCpIcy_v1ol7rBr_-39" target="N7BwOCpIcy_v1ol7rBr_-45">
          <mxGeometry relative="1" as="geometry" />
        </mxCell>
        <mxCell id="N7BwOCpIcy_v1ol7rBr_-39" value="" style="shape=providedRequiredInterface;html=1;verticalLabelPosition=bottom;sketch=0;flipV=0;flipH=0;" vertex="1" parent="1">
          <mxGeometry x="1260" y="1260" width="30" height="30" as="geometry" />
        </mxCell>
        <mxCell id="N7BwOCpIcy_v1ol7rBr_-44" value="" style="edgeStyle=orthogonalEdgeStyle;rounded=0;orthogonalLoop=1;jettySize=auto;html=1;exitX=0;exitY=0.5;exitDx=0;exitDy=0;exitPerimeter=0;entryX=1;entryY=0.5;entryDx=0;entryDy=0;endArrow=none;endFill=1;startFill=0;" edge="1" parent="1" source="N7BwOCpIcy_v1ol7rBr_-39" target="N7BwOCpIcy_v1ol7rBr_-43">
          <mxGeometry relative="1" as="geometry">
            <mxPoint x="1205" y="1175" as="sourcePoint" />
            <mxPoint x="1090" y="1185" as="targetPoint" />
          </mxGeometry>
        </mxCell>
        <mxCell id="N7BwOCpIcy_v1ol7rBr_-43" value="" style="whiteSpace=wrap;html=1;aspect=fixed;" vertex="1" parent="1">
          <mxGeometry x="1150" y="1265" width="20" height="20" as="geometry" />
        </mxCell>
        <mxCell id="N7BwOCpIcy_v1ol7rBr_-47" value="" style="whiteSpace=wrap;html=1;aspect=fixed;" vertex="1" parent="1">
          <mxGeometry x="1150" y="1045" width="20" height="20" as="geometry" />
        </mxCell>
        <mxCell id="N7BwOCpIcy_v1ol7rBr_-48" value="" style="whiteSpace=wrap;html=1;aspect=fixed;" vertex="1" parent="1">
          <mxGeometry x="1150" y="905" width="20" height="20" as="geometry" />
        </mxCell>
        <mxCell id="N7BwOCpIcy_v1ol7rBr_-49" value="" style="whiteSpace=wrap;html=1;aspect=fixed;" vertex="1" parent="1">
          <mxGeometry x="970" y="905" width="20" height="20" as="geometry" />
        </mxCell>
        <mxCell id="N7BwOCpIcy_v1ol7rBr_-50" value="" style="whiteSpace=wrap;html=1;aspect=fixed;" vertex="1" parent="1">
          <mxGeometry x="970" y="1045" width="20" height="20" as="geometry" />
        </mxCell>
        <mxCell id="N7BwOCpIcy_v1ol7rBr_-51" value="" style="whiteSpace=wrap;html=1;aspect=fixed;" vertex="1" parent="1">
          <mxGeometry x="970" y="1265" width="20" height="20" as="geometry" />
        </mxCell>
        <mxCell id="N7BwOCpIcy_v1ol7rBr_-52" value="" style="whiteSpace=wrap;html=1;aspect=fixed;" vertex="1" parent="1">
          <mxGeometry x="640" y="1045" width="20" height="20" as="geometry" />
        </mxCell>
        <mxCell id="N7BwOCpIcy_v1ol7rBr_-53" value="" style="whiteSpace=wrap;html=1;aspect=fixed;" vertex="1" parent="1">
          <mxGeometry x="460" y="1045" width="20" height="20" as="geometry" />
        </mxCell>
        <mxCell id="N7BwOCpIcy_v1ol7rBr_-54" value="" style="whiteSpace=wrap;html=1;aspect=fixed;" vertex="1" parent="1">
          <mxGeometry x="330" y="1045" width="20" height="20" as="geometry" />
        </mxCell>
        <mxCell id="N7BwOCpIcy_v1ol7rBr_-59" value="&lt;b&gt;База данных&lt;/b&gt;" style="shape=cylinder3;whiteSpace=wrap;html=1;boundedLbl=1;backgroundOutline=1;size=15;" vertex="1" parent="1">
          <mxGeometry x="1435" y="990" width="95" height="160" as="geometry" />
        </mxCell>
        <mxCell id="N7BwOCpIcy_v1ol7rBr_-45" value="" style="whiteSpace=wrap;html=1;aspect=fixed;" vertex="1" parent="1">
          <mxGeometry x="1420" y="1045" width="20" height="20" as="geometry" />
        </mxCell>
        <mxCell id="N7BwOCpIcy_v1ol7rBr_-62" value="&lt;b&gt;Сервис управления заказами&lt;/b&gt;" style="html=1;dropTarget=0;whiteSpace=wrap;" vertex="1" parent="1">
          <mxGeometry x="980" y="1120" width="180" height="90" as="geometry" />
        </mxCell>
        <mxCell id="N7BwOCpIcy_v1ol7rBr_-63" value="" style="shape=module;jettyWidth=8;jettyHeight=4;" vertex="1" parent="N7BwOCpIcy_v1ol7rBr_-62">
          <mxGeometry x="1" width="20" height="20" relative="1" as="geometry">
            <mxPoint x="-27" y="7" as="offset" />
          </mxGeometry>
        </mxCell>
        <mxCell id="N7BwOCpIcy_v1ol7rBr_-64" value="" style="whiteSpace=wrap;html=1;aspect=fixed;" vertex="1" parent="1">
          <mxGeometry x="1150" y="1180" width="20" height="20" as="geometry" />
        </mxCell>
        <mxCell id="N7BwOCpIcy_v1ol7rBr_-65" value="" style="whiteSpace=wrap;html=1;aspect=fixed;" vertex="1" parent="1">
          <mxGeometry x="970" y="1180" width="20" height="20" as="geometry" />
        </mxCell>
        <mxCell id="N7BwOCpIcy_v1ol7rBr_-68" style="edgeStyle=orthogonalEdgeStyle;rounded=0;orthogonalLoop=1;jettySize=auto;html=1;exitX=1;exitY=0.5;exitDx=0;exitDy=0;exitPerimeter=0;entryX=0;entryY=0.5;entryDx=0;entryDy=0;endArrow=none;startFill=0;" edge="1" parent="1" source="N7BwOCpIcy_v1ol7rBr_-66" target="N7BwOCpIcy_v1ol7rBr_-45">
          <mxGeometry relative="1" as="geometry" />
        </mxCell>
        <mxCell id="N7BwOCpIcy_v1ol7rBr_-66" value="" style="shape=providedRequiredInterface;html=1;verticalLabelPosition=bottom;sketch=0;flipV=0;flipH=0;" vertex="1" parent="1">
          <mxGeometry x="1260" y="1175" width="30" height="30" as="geometry" />
        </mxCell>
        <mxCell id="N7BwOCpIcy_v1ol7rBr_-67" style="edgeStyle=orthogonalEdgeStyle;rounded=0;orthogonalLoop=1;jettySize=auto;html=1;exitX=1;exitY=0.5;exitDx=0;exitDy=0;entryX=0;entryY=0.5;entryDx=0;entryDy=0;entryPerimeter=0;endArrow=none;startFill=0;" edge="1" parent="1" source="N7BwOCpIcy_v1ol7rBr_-64" target="N7BwOCpIcy_v1ol7rBr_-66">
          <mxGeometry relative="1" as="geometry" />
        </mxCell>
        <mxCell id="N7BwOCpIcy_v1ol7rBr_-71" style="edgeStyle=orthogonalEdgeStyle;rounded=0;orthogonalLoop=1;jettySize=auto;html=1;exitX=1;exitY=0.5;exitDx=0;exitDy=0;exitPerimeter=0;entryX=0;entryY=0.5;entryDx=0;entryDy=0;endArrow=none;startFill=0;" edge="1" parent="1" source="N7BwOCpIcy_v1ol7rBr_-69" target="N7BwOCpIcy_v1ol7rBr_-65">
          <mxGeometry relative="1" as="geometry" />
        </mxCell>
        <mxCell id="N7BwOCpIcy_v1ol7rBr_-69" value="" style="shape=providedRequiredInterface;html=1;verticalLabelPosition=bottom;sketch=0;flipV=0;flipH=0;" vertex="1" parent="1">
          <mxGeometry x="767" y="1175" width="30" height="30" as="geometry" />
        </mxCell>
        <mxCell id="N7BwOCpIcy_v1ol7rBr_-70" style="edgeStyle=orthogonalEdgeStyle;rounded=0;orthogonalLoop=1;jettySize=auto;html=1;exitX=1;exitY=0.5;exitDx=0;exitDy=0;entryX=0;entryY=0.5;entryDx=0;entryDy=0;entryPerimeter=0;endArrow=none;startFill=0;" edge="1" parent="1" source="N7BwOCpIcy_v1ol7rBr_-52" target="N7BwOCpIcy_v1ol7rBr_-69">
          <mxGeometry relative="1" as="geometry" />
        </mxCell>
      </root>
    </mxGraphModel>
  </diagram>
</mxfile>
